<svg xmlns="http://www.w3.org/2000/svg" xmlns:xlink="http://www.w3.org/1999/xlink" width="500" zoomAndPan="magnify" viewBox="0 0 375 374.999991" height="500" preserveAspectRatio="xMidYMid meet" version="1.0"><defs><g/><clipPath id="deb939ca7c"><path d="M 115.824219 161.804688 L 266.296875 161.804688 L 266.296875 213.195312 L 115.824219 213.195312 Z M 115.824219 161.804688 " clip-rule="nonzero"/></clipPath></defs><g fill="#ff3131" fill-opacity="1"><g transform="translate(131.074215, 241.528467)"><g><path d="M 94.234375 -82.625 C 94.234375 -74.988281 91.941406 -68.640625 87.359375 -63.578125 C 82.773438 -58.523438 75.46875 -55.140625 65.4375 -53.421875 L 97.09375 -15.328125 C 99.664062 -12.171875 102.503906 -9.898438 105.609375 -8.515625 C 108.710938 -7.128906 112.410156 -6.101562 116.703125 -5.4375 L 116.703125 0 L 89.078125 0 L 53.984375 -44.96875 C 52.742188 -46.59375 51.570312 -47.878906 50.46875 -48.828125 C 49.375 -49.785156 48.226562 -50.523438 47.03125 -51.046875 C 45.84375 -51.578125 44.460938 -51.910156 42.890625 -52.046875 C 41.316406 -52.191406 39.429688 -52.265625 37.234375 -52.265625 L 37.234375 -22.484375 C 37.234375 -18.953125 37.445312 -16.0625 37.875 -13.8125 C 38.300781 -11.570312 39.207031 -9.832031 40.59375 -8.59375 C 41.976562 -7.351562 43.984375 -6.515625 46.609375 -6.078125 C 49.234375 -5.648438 52.695312 -5.4375 57 -5.4375 L 57 0 L 6.4375 0 L 6.4375 -5.4375 C 9.78125 -5.53125 12.476562 -5.816406 14.53125 -6.296875 C 16.582031 -6.773438 18.179688 -7.585938 19.328125 -8.734375 C 20.472656 -9.878906 21.238281 -11.5 21.625 -13.59375 C 22.007812 -15.695312 22.203125 -18.421875 22.203125 -21.765625 L 22.203125 -88.5 C 22.203125 -91.84375 22.03125 -94.539062 21.6875 -96.59375 C 21.351562 -98.644531 20.6875 -100.265625 19.6875 -101.453125 C 18.6875 -102.648438 17.226562 -103.460938 15.3125 -103.890625 C 13.40625 -104.316406 10.925781 -104.628906 7.875 -104.828125 L 7.875 -110.265625 L 52.84375 -110.265625 C 66.019531 -110.265625 76.210938 -107.828125 83.421875 -102.953125 C 90.628906 -98.085938 94.234375 -91.3125 94.234375 -82.625 Z M 37.234375 -59.421875 L 47.40625 -59.421875 C 56.945312 -59.421875 64.03125 -61.164062 68.65625 -64.65625 C 73.289062 -68.144531 75.609375 -73.894531 75.609375 -81.90625 C 75.609375 -89.644531 73.769531 -95.179688 70.09375 -98.515625 C 66.414062 -101.859375 60.664062 -103.53125 52.84375 -103.53125 L 39.671875 -103.53125 C 38.046875 -103.53125 37.234375 -102.71875 37.234375 -101.09375 Z M 37.234375 -59.421875 "/></g></g></g><g clip-path="url(#deb939ca7c)"><path fill="#ffffff" d="M 115.824219 161.804688 L 266.382812 161.804688 L 266.382812 213.195312 L 115.824219 213.195312 Z M 115.824219 161.804688 " fill-opacity="1" fill-rule="nonzero"/></g><g fill="#ff3131" fill-opacity="1"><g transform="translate(112.136716, 200.249987)"><g><path d="M 25 -21.921875 C 25 -19.898438 24.390625 -18.21875 23.171875 -16.875 C 21.960938 -15.53125 20.023438 -14.628906 17.359375 -14.171875 L 25.765625 -4.0625 C 26.453125 -3.226562 27.207031 -2.625 28.03125 -2.25 C 28.851562 -1.882812 29.832031 -1.613281 30.96875 -1.4375 L 30.96875 0 L 23.640625 0 L 14.328125 -11.9375 C 13.992188 -12.363281 13.679688 -12.703125 13.390625 -12.953125 C 13.097656 -13.210938 12.796875 -13.410156 12.484375 -13.546875 C 12.171875 -13.679688 11.800781 -13.769531 11.375 -13.8125 C 10.957031 -13.851562 10.457031 -13.875 9.875 -13.875 L 9.875 -5.96875 C 9.875 -5.03125 9.929688 -4.265625 10.046875 -3.671875 C 10.160156 -3.078125 10.398438 -2.613281 10.765625 -2.28125 C 11.140625 -1.945312 11.671875 -1.722656 12.359375 -1.609375 C 13.054688 -1.492188 13.976562 -1.4375 15.125 -1.4375 L 15.125 0 L 1.703125 0 L 1.703125 -1.4375 C 2.597656 -1.46875 3.316406 -1.546875 3.859375 -1.671875 C 4.398438 -1.796875 4.820312 -2.007812 5.125 -2.3125 C 5.4375 -2.625 5.640625 -3.054688 5.734375 -3.609375 C 5.835938 -4.171875 5.890625 -4.894531 5.890625 -5.78125 L 5.890625 -23.484375 C 5.890625 -24.367188 5.84375 -25.082031 5.75 -25.625 C 5.664062 -26.175781 5.488281 -26.609375 5.21875 -26.921875 C 4.957031 -27.234375 4.570312 -27.445312 4.0625 -27.5625 C 3.5625 -27.675781 2.90625 -27.757812 2.09375 -27.8125 L 2.09375 -29.265625 L 14.015625 -29.265625 C 17.515625 -29.265625 20.21875 -28.617188 22.125 -27.328125 C 24.039062 -26.035156 25 -24.234375 25 -21.921875 Z M 9.875 -15.765625 L 12.578125 -15.765625 C 15.109375 -15.765625 16.988281 -16.226562 18.21875 -17.15625 C 19.445312 -18.082031 20.0625 -19.609375 20.0625 -21.734375 C 20.0625 -23.785156 19.570312 -25.253906 18.59375 -26.140625 C 17.625 -27.023438 16.097656 -27.46875 14.015625 -27.46875 L 10.53125 -27.46875 C 10.09375 -27.46875 9.875 -27.253906 9.875 -26.828125 Z M 9.875 -15.765625 "/></g></g></g><g fill="#ff3131" fill-opacity="1"><g transform="translate(142.074595, 200.249987)"><g><path d="M 18.546875 -10.609375 L 8.390625 -10.609375 C 7.960938 -9.566406 7.597656 -8.644531 7.296875 -7.84375 C 6.992188 -7.050781 6.742188 -6.363281 6.546875 -5.78125 C 6.359375 -5.195312 6.226562 -4.703125 6.15625 -4.296875 C 6.082031 -3.890625 6.046875 -3.5625 6.046875 -3.3125 C 6.046875 -2.59375 6.269531 -2.097656 6.71875 -1.828125 C 7.175781 -1.566406 7.9375 -1.4375 9 -1.4375 L 9 0 L -0.234375 0 L -0.234375 -1.4375 C 0.347656 -1.519531 0.847656 -1.625 1.265625 -1.75 C 1.691406 -1.875 2.0625 -2.050781 2.375 -2.28125 C 2.6875 -2.507812 2.960938 -2.804688 3.203125 -3.171875 C 3.453125 -3.535156 3.6875 -3.984375 3.90625 -4.515625 L 13.796875 -29.265625 L 15.421875 -29.265625 L 24.046875 -7.828125 C 24.628906 -6.410156 25.132812 -5.273438 25.5625 -4.421875 C 26 -3.578125 26.421875 -2.9375 26.828125 -2.5 C 27.234375 -2.070312 27.671875 -1.796875 28.140625 -1.671875 C 28.609375 -1.546875 29.171875 -1.484375 29.828125 -1.484375 L 29.828125 0 L 17.4375 0 L 17.4375 -1.484375 C 18.78125 -1.484375 19.703125 -1.609375 20.203125 -1.859375 C 20.710938 -2.109375 20.96875 -2.523438 20.96875 -3.109375 C 20.96875 -3.367188 20.957031 -3.601562 20.9375 -3.8125 C 20.914062 -4.03125 20.867188 -4.265625 20.796875 -4.515625 C 20.734375 -4.773438 20.644531 -5.0625 20.53125 -5.375 C 20.425781 -5.695312 20.285156 -6.070312 20.109375 -6.5 Z M 9.15625 -12.5 L 17.828125 -12.5 L 13.609375 -23.71875 Z M 9.15625 -12.5 "/></g></g></g><g fill="#ff3131" fill-opacity="1"><g transform="translate(171.404599, 200.249987)"><g><path d="M 20.90625 -6.796875 L 30.78125 -29.265625 L 39.296875 -29.265625 L 39.296875 -27.8125 C 38.484375 -27.789062 37.828125 -27.691406 37.328125 -27.515625 C 36.835938 -27.335938 36.457031 -27.035156 36.1875 -26.609375 C 35.925781 -26.191406 35.75 -25.613281 35.65625 -24.875 C 35.570312 -24.144531 35.53125 -23.210938 35.53125 -22.078125 L 35.53125 -7.1875 C 35.53125 -5.914062 35.578125 -4.910156 35.671875 -4.171875 C 35.773438 -3.441406 35.972656 -2.875 36.265625 -2.46875 C 36.554688 -2.0625 36.972656 -1.796875 37.515625 -1.671875 C 38.066406 -1.546875 38.785156 -1.46875 39.671875 -1.4375 L 39.671875 0 L 27.359375 0 L 27.359375 -1.4375 C 28.242188 -1.46875 28.957031 -1.550781 29.5 -1.6875 C 30.050781 -1.832031 30.476562 -2.09375 30.78125 -2.46875 C 31.082031 -2.851562 31.285156 -3.390625 31.390625 -4.078125 C 31.492188 -4.773438 31.546875 -5.722656 31.546875 -6.921875 L 31.546875 -24.546875 L 31.15625 -24.546875 L 20.0625 0.375 L 19.234375 0.375 L 8.328125 -24.546875 L 8.171875 -24.546875 L 8.171875 -7.1875 C 8.171875 -5.914062 8.21875 -4.910156 8.3125 -4.171875 C 8.414062 -3.441406 8.613281 -2.875 8.90625 -2.46875 C 9.195312 -2.0625 9.613281 -1.796875 10.15625 -1.671875 C 10.707031 -1.546875 11.425781 -1.46875 12.3125 -1.4375 L 12.3125 0 L 1.703125 0 L 1.703125 -1.4375 C 2.597656 -1.46875 3.316406 -1.550781 3.859375 -1.6875 C 4.398438 -1.832031 4.820312 -2.09375 5.125 -2.46875 C 5.4375 -2.851562 5.640625 -3.390625 5.734375 -4.078125 C 5.835938 -4.773438 5.890625 -5.722656 5.890625 -6.921875 L 5.890625 -22.34375 C 5.890625 -23.40625 5.84375 -24.285156 5.75 -24.984375 C 5.664062 -25.679688 5.488281 -26.234375 5.21875 -26.640625 C 4.957031 -27.046875 4.570312 -27.328125 4.0625 -27.484375 C 3.5625 -27.648438 2.90625 -27.757812 2.09375 -27.8125 L 2.09375 -29.265625 L 11.171875 -29.265625 L 20.75 -6.796875 Z M 20.90625 -6.796875 "/></g></g></g><g fill="#ff3131" fill-opacity="1"><g transform="translate(212.816141, 200.249987)"><g><path d="M 9.875 -7.1875 C 9.875 -5.914062 9.925781 -4.910156 10.03125 -4.171875 C 10.132812 -3.441406 10.332031 -2.875 10.625 -2.46875 C 10.914062 -2.0625 11.332031 -1.796875 11.875 -1.671875 C 12.414062 -1.546875 13.128906 -1.46875 14.015625 -1.4375 L 14.015625 0 L 1.703125 0 L 1.703125 -1.4375 C 2.597656 -1.46875 3.316406 -1.550781 3.859375 -1.6875 C 4.398438 -1.832031 4.820312 -2.09375 5.125 -2.46875 C 5.4375 -2.851562 5.640625 -3.390625 5.734375 -4.078125 C 5.835938 -4.773438 5.890625 -5.722656 5.890625 -6.921875 L 5.890625 -22.34375 C 5.890625 -23.40625 5.84375 -24.285156 5.75 -24.984375 C 5.664062 -25.679688 5.488281 -26.234375 5.21875 -26.640625 C 4.957031 -27.046875 4.570312 -27.328125 4.0625 -27.484375 C 3.5625 -27.648438 2.90625 -27.757812 2.09375 -27.8125 L 2.09375 -29.265625 L 13.640625 -29.265625 L 13.640625 -27.8125 C 12.828125 -27.789062 12.171875 -27.691406 11.671875 -27.515625 C 11.179688 -27.335938 10.800781 -27.035156 10.53125 -26.609375 C 10.269531 -26.191406 10.09375 -25.613281 10 -24.875 C 9.914062 -24.144531 9.875 -23.210938 9.875 -22.078125 Z M 9.875 -7.1875 "/></g></g></g><g fill="#ff3131" fill-opacity="1"><g transform="translate(228.582916, 200.249987)"><g><path d="M 26.375 0.375 L 8.328125 -23.40625 L 8.171875 -23.40625 L 8.171875 -7.1875 C 8.171875 -5.914062 8.210938 -4.910156 8.296875 -4.171875 C 8.390625 -3.441406 8.566406 -2.875 8.828125 -2.46875 C 9.097656 -2.0625 9.476562 -1.796875 9.96875 -1.671875 C 10.46875 -1.546875 11.125 -1.46875 11.9375 -1.4375 L 11.9375 0 L 1.703125 0 L 1.703125 -1.4375 C 2.597656 -1.46875 3.316406 -1.550781 3.859375 -1.6875 C 4.398438 -1.832031 4.820312 -2.09375 5.125 -2.46875 C 5.4375 -2.851562 5.640625 -3.390625 5.734375 -4.078125 C 5.835938 -4.773438 5.890625 -5.722656 5.890625 -6.921875 L 5.890625 -22.34375 C 5.890625 -23.40625 5.84375 -24.285156 5.75 -24.984375 C 5.664062 -25.679688 5.488281 -26.234375 5.21875 -26.640625 C 4.957031 -27.046875 4.570312 -27.328125 4.0625 -27.484375 C 3.5625 -27.648438 2.90625 -27.757812 2.09375 -27.8125 L 2.09375 -29.265625 L 9.609375 -29.265625 L 26.21875 -7.109375 L 26.375 -7.109375 L 26.375 -22.078125 C 26.375 -23.316406 26.328125 -24.3125 26.234375 -25.0625 C 26.148438 -25.8125 25.972656 -26.382812 25.703125 -26.78125 C 25.441406 -27.1875 25.0625 -27.453125 24.5625 -27.578125 C 24.070312 -27.710938 23.421875 -27.789062 22.609375 -27.8125 L 22.609375 -29.265625 L 32.828125 -29.265625 L 32.828125 -27.8125 C 31.941406 -27.789062 31.226562 -27.707031 30.6875 -27.5625 C 30.144531 -27.425781 29.71875 -27.164062 29.40625 -26.78125 C 29.101562 -26.40625 28.898438 -25.863281 28.796875 -25.15625 C 28.703125 -24.445312 28.65625 -23.507812 28.65625 -22.34375 L 28.65625 0.375 Z M 26.375 0.375 "/></g></g></g></svg>